<?xml version="1.0" encoding="utf-8"?>
<!-- Generator: Adobe Illustrator 25.2.0, SVG Export Plug-In . SVG Version: 6.00 Build 0)  -->
<svg version="1.1" id="Layer_1" xmlns="http://www.w3.org/2000/svg" xmlns:xlink="http://www.w3.org/1999/xlink" x="0px" y="0px"
	 viewBox="0 0 406.7 124.7" style="enable-background:new 0 0 406.7 124.7;" xml:space="preserve">
<style type="text/css">
	.st0{fill:#2D2138;}
	.st1{fill:#F15F55;}
	.st2{fill:none;stroke:#FCC04D;stroke-miterlimit:10;}
	.st3{fill:#FCC04D;stroke:#FCC04D;stroke-miterlimit:10;}
	.st4{fill:#FDECCA;}
</style>
<rect x="0.4" class="st0" width="406.7" height="124.7"/>
<g>
	<path class="st1" d="M107.1,61.6c0,5.1-3.2,9.4-10.2,9.4H85V52.5h10.6c4.5,0,6.1-2.3,6.1-5.1s-1.2-5.1-5.8-5.1H85V39h11.2
		c6.4,0,9.1,3.8,9.1,8.4c0,2.6-1.2,4.9-3.4,6.3C105.2,55.2,107.1,58.1,107.1,61.6z M103.6,61.6c0-3.3-2.1-6.1-6.9-6.1h-8.3v12.2
		l8.5,0.1C101.4,67.8,103.6,64.9,103.6,61.6z"/>
	<path class="st1" d="M122.4,48.7l-0.6,3.3c-0.5-0.1-1-0.1-1.5-0.1c-3.4,0-5.9,2.3-5.9,7.2V71H111V49h3.3v2.6
		c1.5-1.8,3.7-2.9,6.4-2.9C121.3,48.7,121.9,48.7,122.4,48.7z"/>
	<path class="st1" d="M125.4,42.9c0-1,0.8-1.9,1.8-1.9c1.1,0,1.9,0.8,1.9,1.9c0,1-0.8,1.8-1.9,1.8C126.2,44.8,125.4,43.9,125.4,42.9
		z M125.6,49h3.3v22.1h-3.3C125.6,71.1,125.6,49,125.6,49z"/>
	<path class="st1" d="M145.6,69.7c-1.6,1.3-3.8,1.9-5.2,1.7c-2.9-0.3-4.7-2.1-4.7-7.2c0-2,0-7.2,0-11.9h-3.4V49h3.4
		c0-3.1,0-4.9,0-4.9l3.4-0.9c0,0,0,2.8,0,5.8h4.7v3.3h-4.7c0,4.8,0,10.1,0,11.8c0,1.8,0.1,2.9,0.9,3.6c0.7,0.6,2.6,0.6,3.9-0.5
		L145.6,69.7z"/>
	<path class="st1" d="M158.8,69.7c-1.6,1.3-3.8,1.9-5.2,1.7c-2.9-0.3-4.7-2.1-4.7-7.2c0-2,0-7.2,0-11.9h-3.4V49h3.4
		c0-3.1,0-4.9,0-4.9l3.4-0.9c0,0,0,2.8,0,5.8h4.7v3.3h-4.7c0,4.8,0,10.1,0,11.8c0,1.8,0.1,2.9,0.9,3.6c0.7,0.6,2.6,0.6,3.9-0.5
		L158.8,69.7z"/>
	<path class="st1" d="M175.7,71.1v-2.7c-2,1.7-4.5,3-7.7,3c-4.1,0-7.1-2-7.1-5.7c0-4.3,3.4-6.3,10.2-7.4c3.4-0.5,4.8-1.2,4.7-2.7
		s-0.8-3.9-5-3.9c-3.9,0-5,1.9-5.5,3.8l-2.9-0.7c0.6-3,3.2-6.1,8.6-6.1c5.1,0,8.1,2.9,8.1,7.6c0,4.5,0.1,14.8,0.1,14.8H175.7z
		 M175.8,61.6v-1c-1.2,0.2-2.6,0.4-4.3,0.7c-4.8,0.8-7.1,1.7-7.1,4.2c0,2.4,2.8,2.8,3.9,2.8C172.5,68.3,175.8,65.6,175.8,61.6z"/>
	<path class="st1" d="M201.6,58.9c0,7.4,0,12.2,0,12.2h-3.3c0,0,0-8.8,0-12.2c0-4.8-2.1-6.9-5.6-6.9c-3.4,0-5.9,2.3-5.9,7.2V71h-3.3
		V49h3.3v2.6c1.6-1.8,3.7-2.9,6.4-2.9C197.6,48.7,201.6,50.8,201.6,58.9z"/>
	<path class="st1" d="M223.3,49l-7.7,21.4c-1.4,3.6-2.4,6.1-3.7,7.8c-1.7,2.3-4.2,2.8-6.9,2.1l0.6-3.3c3.1,0.6,4-0.3,6.2-6l-8.1-22
		h3.6l6.2,17.5l6.3-17.5H223.3z"/>
	<path class="st1" d="M260.2,42.3h-21V39h21V42.3z M258.7,56.7h-19.6v-3.3h19.6V56.7z M260.4,67.7V71h-21.3v-3.3H260.4z"/>
	<path class="st1" d="M303.8,62.6l2.9,1.5c-2.8,4.4-7.6,7.3-13.2,7.3c-9,0-15.8-7.3-15.8-16.4s6.8-16.4,15.8-16.4
		c5.7,0,10.5,2.9,13.2,7.3l-2.9,1.4c-2.2-3.3-5.9-5.5-10.3-5.5c-7.2,0-12.4,5.9-12.4,13.1S286.3,68,293.5,68
		C297.8,68.2,301.5,66,303.8,62.6z"/>
	<path class="st1" d="M324.2,71.1v-2.7c-2,1.7-4.5,3-7.7,3c-4.1,0-7.1-2-7.1-5.7c0-4.3,3.4-6.3,10.2-7.4c3.4-0.5,4.8-1.2,4.7-2.7
		c0-1.5-0.8-3.9-5-3.9c-3.9,0-5,1.9-5.5,3.8l-2.9-0.7c0.6-3,3.2-6.1,8.6-6.1c5.1,0,8.1,2.9,8.1,7.6c0,4.5,0,14.8,0,14.8H324.2z
		 M324.3,61.6v-1c-1.2,0.2-2.6,0.4-4.3,0.7c-4.8,0.8-7.1,1.7-7.1,4.2c0,2.4,2.8,2.8,3.9,2.8C321.1,68.3,324.4,65.6,324.3,61.6z"/>
	<path class="st1" d="M343.3,48.7l-0.6,3.3c-0.5-0.1-1-0.1-1.5-0.1c-3.4,0-5.9,2.3-5.9,7.2V71H332V49h3.3v2.6
		c1.5-1.8,3.7-2.9,6.4-2.9C342.1,48.7,342.7,48.7,343.3,48.7z"/>
	<path class="st1" d="M358.1,69.7c-1.6,1.3-3.8,1.9-5.2,1.7c-2.9-0.3-4.7-2.1-4.7-7.2c0-2,0-7.2,0-11.9h-3.4V49h3.4
		c0-3.1,0-4.9,0-4.9l3.3-0.9c0,0,0,2.8,0,5.8h4.7v3.3h-4.7c0,4.8,0,10.1,0,11.8c0,1.8,0.1,2.9,0.9,3.6c0.7,0.6,2.6,0.6,3.9-0.5
		L358.1,69.7z"/>
	<path class="st1" d="M380.2,60.1c0,0.4,0,0.8,0,1.2h-17c0.5,4,3.2,7,7.3,7c2.8,0,4.8-1.2,6.1-3.3l2.9,1.4c-1.8,3.1-5,5.1-9,5.1
		c-6.3,0-10.8-5-10.8-11.3s4.2-11.4,10.5-11.4C376.5,48.7,380.2,53.7,380.2,60.1z M363.3,57.9h13.5c-0.6-3.5-2.8-6-6.6-6
		C366.4,51.9,364,54.4,363.3,57.9z"/>
	<path class="st1" d="M395.5,48.7l-0.6,3.3c-0.5-0.1-1-0.1-1.5-0.1c-3.4,0-5.9,2.3-5.9,7.2V71h-3.3V49h3.3v2.6
		c1.5-1.8,3.7-2.9,6.4-2.9C394.4,48.7,394.9,48.7,395.5,48.7z"/>
</g>
<line class="st2" x1="64.7" y1="57.4" x2="91.2" y2="18.5"/>
<line class="st2" x1="64.4" y1="13.2" x2="64.4" y2="113.3"/>
<line class="st2" x1="80.5" y1="10.2" x2="71.9" y2="27.7"/>
<line class="st2" x1="47.8" y1="38.5" x2="64.1" y2="57.4"/>
<line class="st2" x1="28" y1="37.2" x2="64.1" y2="57.4"/>
<line class="st2" x1="13.5" y1="44.4" x2="64.1" y2="57.4"/>
<line class="st2" x1="31.4" y1="59.5" x2="63.9" y2="58"/>
<line class="st2" x1="14.8" y1="77.6" x2="63.4" y2="58"/>
<line class="st2" x1="28" y1="88.9" x2="63.9" y2="58"/>
<line class="st2" x1="48.7" y1="97.2" x2="64.7" y2="57.4"/>
<line class="st2" x1="77.9" y1="104.8" x2="71.1" y2="85.3"/>
<line class="st2" x1="92.4" y1="93.3" x2="64.1" y2="57.4"/>
<ellipse class="st3" cx="64.4" cy="112.3" rx="4.1" ry="3.8"/>
<ellipse class="st3" cx="77.9" cy="104.8" rx="4.1" ry="3.8"/>
<ellipse class="st3" cx="92.7" cy="93.6" rx="4.1" ry="3.8"/>
<ellipse class="st3" cx="92.7" cy="16.5" rx="4.1" ry="3.8"/>
<ellipse class="st3" cx="80.6" cy="10" rx="4.1" ry="3.8"/>
<ellipse class="st3" cx="64.4" cy="10" rx="4.1" ry="3.8"/>
<ellipse class="st3" cx="43.6" cy="20.2" rx="4.1" ry="3.8"/>
<ellipse class="st3" cx="47.7" cy="38.3" rx="4.1" ry="3.8"/>
<ellipse class="st3" cx="28" cy="37.2" rx="4.1" ry="3.8"/>
<ellipse class="st3" cx="11.4" cy="43.8" rx="4.1" ry="3.8"/>
<ellipse class="st3" cx="28" cy="58.7" rx="4.1" ry="3.8"/>
<ellipse class="st3" cx="15.4" cy="76.6" rx="4.1" ry="3.8"/>
<ellipse class="st3" cx="28.7" cy="88.2" rx="4.1" ry="3.8"/>
<ellipse class="st3" cx="45.7" cy="81.5" rx="4.1" ry="3.8"/>
<ellipse class="st3" cx="48.7" cy="99.1" rx="4.1" ry="3.8"/>
<g>
	<path class="st4" d="M209.3,93l-7,17.5h-1.6l-3.4-8.6l-3.3,8.6h-1.6l-7-17.5h2l5.8,14.6l3.2-8l-2.8-6.5h2l1.8,4.2l1.8-4.2h2
		l-2.8,6.5l3.2,8l5.8-14.6H209.3z"/>
	<path class="st4" d="M219.2,104.5c0,0.2,0,0.4,0,0.6h-9.3c0.3,2.2,1.8,3.8,4,3.8c1.5,0,2.6-0.7,3.3-1.8l1.6,0.8
		c-1,1.7-2.7,2.8-4.9,2.8c-3.4,0-5.9-2.7-5.9-6.2c0-3.4,2.3-6.2,5.7-6.2C217.2,98.3,219.2,101.1,219.2,104.5z M210,103.4h7.4
		c-0.3-1.9-1.5-3.3-3.6-3.3C211.7,100.1,210.4,101.5,210,103.4z"/>
	<path class="st4" d="M232.9,104.5c0,3.4-2.2,6.2-5.6,6.2c-1.7,0-3-0.7-4-1.8v1.6h-1.8V93h1.8v7.1c0.9-1.1,2.3-1.8,4-1.8
		C230.7,98.3,232.9,101.1,232.9,104.5z M231.1,104.5c0-2.5-1.3-4.5-3.8-4.5s-3.9,2-3.9,4.5s1.4,4.4,3.9,4.4
		C229.7,109,231.1,107,231.1,104.5z"/>
	<path class="st4" d="M256.6,101.8c0,4.8-3.4,8.7-8.8,8.7h-5.4v-8.2h1.8v6.4c0.7,0,1.7,0,3.4,0c4.5,0,7-3.1,7-6.9s-2.7-6.9-7-6.9
		h-5.2V93c0,0,3.7,0,5.4,0C253.2,93,256.6,97,256.6,101.8z"/>
	<path class="st4" d="M269.5,104.5c0,0.2,0,0.4,0,0.6h-9.3c0.3,2.2,1.7,3.8,4,3.8c1.5,0,2.6-0.7,3.3-1.8l1.6,0.8
		c-1,1.7-2.7,2.8-4.9,2.8c-3.4,0-5.9-2.7-5.9-6.2c0-3.4,2.3-6.2,5.7-6.2C267.5,98.3,269.5,101.1,269.5,104.5z M260.3,103.4h7.4
		c-0.4-1.9-1.5-3.3-3.6-3.3C262,100.1,260.7,101.5,260.3,103.4z"/>
	<path class="st4" d="M281.1,98.5l-4.4,12h-1.9l-4.4-12h1.9l3.4,9.5l3.4-9.5H281.1z"/>
	<path class="st4" d="M293,104.5c0,0.2,0,0.4,0,0.6h-9.3c0.3,2.2,1.8,3.8,4,3.8c1.5,0,2.6-0.7,3.3-1.8l1.6,0.8
		c-1,1.7-2.7,2.8-4.9,2.8c-3.4,0-5.9-2.7-5.9-6.2c0-3.4,2.3-6.2,5.7-6.2C291,98.3,293,101.1,293,104.5z M283.8,103.4h7.4
		c-0.3-1.9-1.5-3.3-3.6-3.3C285.5,100.1,284.2,101.5,283.8,103.4z"/>
	<path class="st4" d="M300.6,109.8c-0.8,0.8-2,1-2.8,0.9c-1.6-0.2-2.5-1.2-2.5-3.8c0-2.2,0-15,0-15h1.8c0,0,0,13.2,0,14.9
		c0,1,0.1,1.5,0.5,1.9c0.4,0.3,1.4,0.5,2.1-0.2L300.6,109.8z"/>
	<path class="st4" d="M313.2,104.5c0,3.4-2.4,6.2-5.9,6.2c-3.4,0-5.8-2.8-5.8-6.2c0-3.4,2.4-6.2,5.8-6.2S313.2,101.1,313.2,104.5z
		 M311.3,104.5c0-2.5-1.6-4.5-4-4.5c-2.5,0-4,2-4,4.5s1.5,4.4,4,4.4C309.8,109,311.3,107,311.3,104.5z"/>
	<path class="st4" d="M326.3,104.5c0,3.4-2.2,6.2-5.6,6.2c-1.7,0-3-0.7-4-1.8v7.1h-1.8V98.5h1.8v1.6c0.9-1.1,2.3-1.8,4-1.8
		C324.1,98.3,326.3,101.1,326.3,104.5z M324.5,104.5c0-2.5-1.3-4.5-3.8-4.5c-2.4,0-3.9,2-3.9,4.5s1.4,4.4,3.9,4.4
		C323.2,109,324.5,107,324.5,104.5z"/>
	<path class="st4" d="M339.1,104.5c0,0.2,0,0.4,0,0.6h-9.3c0.3,2.2,1.8,3.8,4,3.8c1.5,0,2.6-0.7,3.3-1.8l1.6,0.8
		c-1,1.7-2.7,2.8-4.9,2.8c-3.4,0-5.9-2.7-5.9-6.2c0-3.4,2.3-6.2,5.7-6.2C337.1,98.3,339.1,101.1,339.1,104.5z M329.9,103.4h7.4
		c-0.3-1.9-1.5-3.3-3.6-3.3C331.6,100.1,330.3,101.5,329.9,103.4z"/>
	<path class="st4" d="M347.5,98.4l-0.3,1.8c-0.3,0-0.5-0.1-0.8-0.1c-1.8,0-3.2,1.3-3.2,3.9v6.5h-1.8v-12h1.8v1.4
		c0.8-1,2-1.6,3.5-1.6C346.9,98.3,347.2,98.3,347.5,98.4z"/>
</g>
</svg>
