<?xml version="1.0" encoding="utf-8"?>
<!-- Generator: Adobe Illustrator 25.1.0, SVG Export Plug-In . SVG Version: 6.00 Build 0)  -->
<svg version="1.1" id="Layer_1" xmlns="http://www.w3.org/2000/svg" xmlns:xlink="http://www.w3.org/1999/xlink" x="0px" y="0px"
	 viewBox="0 0 107.06 64.49" style="enable-background:new 0 0 107.06 64.49;" xml:space="preserve">
<style type="text/css">
	.st0{fill:#2D2138;}
	.st1{fill:#F15F55;}
	.st2{fill:#FCC04D;stroke:#FCC04D;stroke-miterlimit:10;}
</style>
<rect class="st0" width="108.72" height="64.49"/>
<g>
	<path class="st1" d="M38.26,36.77c0,3.75-2.31,6.9-7.44,6.9h-8.74v-13.6h7.77c3.32,0,4.45-1.67,4.45-3.72s-0.9-3.72-4.22-3.72
		l-8,0.03v-2.45h8.17c4.69,0,6.67,2.75,6.67,6.13c0,1.91-0.9,3.58-2.48,4.62C36.86,32.08,38.26,34.19,38.26,36.77z M35.65,36.77
		c0-2.41-1.54-4.49-5.02-4.49h-6.1v8.94l6.23,0.03C34.08,41.26,35.65,39.18,35.65,36.77z"/>
	<path class="st1" d="M57.16,22.63H41.78v-2.41h15.37V22.63z M56.12,33.15H41.78v-2.41h14.33V33.15z M57.36,41.22v2.44H41.78v-2.44
		H57.36z"/>
	<path class="st1" d="M79.63,37.51l2.14,1.07c-2.01,3.22-5.53,5.36-9.68,5.36c-6.6,0-11.56-5.36-11.56-11.96S65.5,20.02,72.1,20.02
		c4.15,0,7.67,2.11,9.68,5.36l-2.14,1.04c-1.61-2.41-4.32-4.02-7.54-4.02c-5.29,0-9.08,4.29-9.08,9.58s3.78,9.58,9.08,9.58
		C75.31,41.56,78.02,39.95,79.63,37.51z"/>
</g>
<line class="st2" x1="74.31" y1="4.51" x2="98.18" y2="23.99"/>
<line class="st2" x1="103.37" y1="35.96" x2="74.92" y2="57.43"/>
<circle class="st2" cx="76.29" cy="6.13" r="3.37"/>
<circle class="st2" cx="72.48" cy="59.27" r="3.37"/>
<line class="st2" x1="30.73" y1="4.51" x2="6.87" y2="23.99"/>
<line class="st2" x1="2.39" y1="36.64" x2="32.38" y2="59.27"/>
<circle class="st2" cx="28.75" cy="6.13" r="3.37"/>
<circle class="st2" cx="32.56" cy="59.27" r="3.37"/>
</svg>
