<?xml version="1.0" encoding="utf-8"?>
<!-- Generator: Adobe Illustrator 25.2.0, SVG Export Plug-In . SVG Version: 6.00 Build 0)  -->
<svg version="1.1" id="Capa_1" xmlns="http://www.w3.org/2000/svg" xmlns:xlink="http://www.w3.org/1999/xlink" x="0px" y="0px"
	 viewBox="0 0 26 26" style="enable-background:new 0 0 26 26;" xml:space="preserve">
<style type="text/css">
	.st0{fill:#FEEEBB;}
</style>
<path class="st0" d="M12.7,1.2C8,1.2,4.2,5,4.2,9.6s3.8,8.4,8.4,8.4s8.4-3.8,8.4-8.4S17.3,1.2,12.7,1.2z M12.7,14.4
	c-2.8,0-5.1-2.3-5.1-5.1c0-2.8,2.3-5.1,5.1-5.1s5.1,2.3,5.1,5.1C17.8,12.2,15.5,14.4,12.7,14.4z"/>
<circle class="st0" cx="12.7" cy="9.3" r="3.4"/>
<polygon class="st0" points="12.7,24 6.7,15.2 18.7,15.2 "/>
<path class="st0" d="M12.7,19.6c-4.6,0-8.2,1.4-8.2,3.2c0,1.8,3.7,3.2,8.2,3.2s8.2-1.4,8.2-3.2C20.9,21,17.2,19.6,12.7,19.6z
	 M12.9,25.3c-3.7,0-6.6-1.1-6.6-2.5s3-2.5,6.6-2.5c3.7,0,6.6,1.1,6.6,2.5S16.5,25.3,12.9,25.3z"/>
</svg>
