<?xml version="1.0" encoding="utf-8"?>
<!-- Generator: Adobe Illustrator 25.1.0, SVG Export Plug-In . SVG Version: 6.00 Build 0)  -->
<svg version="1.1" id="Layer_1" xmlns="http://www.w3.org/2000/svg" xmlns:xlink="http://www.w3.org/1999/xlink" x="0px" y="0px"
	 viewBox="0 0 229 268" style="enable-background:new 0 0 229 268;" xml:space="preserve">
<style type="text/css">
	.st0{fill:#441D16;}
	.st1{fill:none;}
</style>
<path class="st0" d="M66.2,36.7C63.9,42.3,61.8,47.1,60,52c-7.3,19.1-14.6,38.3-21.9,57.4c-1.2,3.1-2.6,6-4,9.1c0,0.1,0,0.2-0.1,0.3
	c-1.4,1.8-3.1,3.6-5.7,3.1c-2-0.4-2.9-3.8-2.1-6.3C31,99.6,38.4,84.6,44.5,69.1c5.7-14.3,11.1-28.7,16.6-43c1.1-2.8,1.9-5.7,3.2-8.4
	c0.5-1,1.7-1.7,2.6-2.6c1,1.2,2.6,2.3,3,3.7c1.6,5.4,2.9,10.8,4.2,16.2c1.9,7.6,3.7,15.2,5.4,22.8c0.4,1.8,1.3,2.3,3.2,2.1
	c5.8-0.6,11.5,0.3,17.1,1.9c3.7,1,6.1,2.9,6.9,6.5c0.2,0.8,0.6,1.6,1.2,3.3c1.3-1.4,2.1-2.4,3.1-3.4c2.6-2.7,5-5.5,7.8-8
	c2.4-2.2,5.8-1.9,8.2-0.5c1.5,0.9,2.4,3.4,2.7,5.3c0.4,2.5,0.3,5.2-0.2,7.8c-0.3,1.4-1.7,2.7-2.6,4.1c-1.4-1.1-3.2-1.9-4.1-3.3
	c-0.8-1.2-0.8-2.9-1.2-4.8c-3.9,2-6.3,4.8-7.4,8.3c-2.4,7.5-3.3,15.3-2.1,23.1c0.2,1.2-0.2,2.5-0.5,3.7c-0.4,1.7-1.4,3.3-3.2,2.6
	c-1.3-0.5-2.8-2-3-3.3c-0.7-4.3-0.6-8.7-1.4-12.9c-1.4-7.3-2.9-14.6-7.8-20.7c-1.9-2.3-9.9-4.5-12.6-3.1c-0.6,0.3-1.1,1.5-0.9,2.1
	c3.3,11.4,6.7,22.7,10.1,34.1c0.2,0.7,0.7,1.4,1,2.1c1.2,3.1,0.4,5.7-1.8,6.4c-3.2,1-7.1-0.5-8.1-3.3c-1.5-4.5-2.8-9-4.1-13.6
	c-1.2-4.3-2.3-8.8-3.4-13.1c-0.8-3.1-1.6-6.2-2.1-9.3c-0.4-2.7-1.7-3.5-4.5-3c-3.1,0.5-6.2,0.7-9.3,1c-1.8,0.2-3.7-0.3-3.4-2.2
	c0.2-1.3,1.3-3.3,2.4-3.7c3.4-1.2,7-1.9,10.6-2.7c1.6-0.4,2.7-1,2.3-2.7c-1.5-6.4-3-12.8-4.5-19.1C67.4,38.7,67,38.2,66.2,36.7z"/>
<path class="st0" d="M170.5,216.2c-3.9-0.7-7.7-1.5-11.6-2.2c-7.4-1.4-14.9-2.7-22.3-4c-4.2-0.8-8.3-1.6-12.5-2.3
	c-7.2-1.2-14.4-2.2-21.5-3.5c-8-1.4-15.9-3.1-23.8-4.7c-4.2-0.8-8.4-1.4-12.4-2.6c-3.5-1-5.4-4.1-5.9-7.3
	c-1.2-7.5-1.7-15.1-2.7-22.6c-0.8-5.5-2-11-3-16.4c-0.1-0.7-0.2-1.3-0.3-2c-0.4-3.5,0.4-6.1,4.1-8.1c7.7-4.2,15-9,22.5-13.6
	c3-1.8,5.8-3.8,8.8-5.7c2.2-1.4,4.5-2.2,7.1-1.2c10.2,4,20.4,7.9,30.5,12c16,6.6,30.2,15.9,43.8,26.1c0.9,0.7,1.9,1.4,3,2
	c1.9,1.2,3.8,2.4,2.1,5c-0.1,0.1-0.1,0.4,0,0.6c0.5,6,1,12.1,1.4,18.1c0.6,8.8,1.2,17.7,1.5,26.5c0.1,3.5-1.7,5-5.4,5.3
	c-1.1,0.1-2.2,0-3.4,0C170.5,215.9,170.5,216.1,170.5,216.2z M57.4,145.4c0.8,5.2,1.4,9.9,2.2,14.5c0.1,0.7,1,1.6,1.7,1.8
	c6.4,2,12.8,4,19.3,5.9c6.6,1.9,13.3,3.9,20,5.6c6.3,1.5,12.6,2.7,18.9,3.9c5.3,1.1,10.7,2.2,16,3.2c5.7,1,11.4,1.9,17.1,2.8
	c4.1,0.7,8.2,1.3,12.3,1.9c2.9,0.5,5.7,1,8.8,1.6c0-6.3,0.1-12.3-0.1-18.3c0-0.7-1.1-1.7-1.9-1.9c-2.1-0.6-4.4-0.9-6.5-1.3
	c-7.2-1.4-14.4-2.9-21.6-4.3c-4.9-1-9.9-1.9-14.9-2.7c-3.6-0.6-7.2-1-10.8-1.6c-8.9-1.4-17.9-2.8-26.8-4.3
	c-5.2-0.9-10.3-1.9-15.4-2.9C69.8,148,64.1,146.8,57.4,145.4z M176.3,206.5c-0.1-1.7-0.1-3.5-0.3-5.2c-0.4-2.6-1.5-4.2-4.7-4.6
	c-5.5-0.7-10.9-2-16.3-3c-6.8-1.3-13.6-2.5-20.4-3.8c-5-1-10.1-1.8-15-3.1c-7-1.9-13.8-4.4-20.8-6.2c-11.1-2.9-22.3-5.3-33.5-8
	c-1.9-0.5-2.4,0.2-2.3,1.9c0.4,5.2,0.8,10.3,1,15.5c0.1,1.6,0.5,2.6,2.1,3c5.2,1.3,10.4,3,15.7,4c8.8,1.6,17.8,2.6,26.6,4
	c7.5,1.2,14.9,2.5,22.4,3.7c3.6,0.6,7.3,0.7,10.8,1.4c9.6,2,18.8,5.8,29,5.7C176.2,211.6,176.2,212.3,176.3,206.5z M59.8,142.4
	c0.2,0.4,0.3,0.8,0.5,1.3c18.8,3.2,37.7,6.4,56.5,9.7c18.8,3.3,37.5,6.9,56.3,10.3c-0.1-1-0.3-1.4-0.7-1.7
	c-10.4-7-20.6-14.3-31.3-20.7c-14.1-8.4-30.3-12.6-45.3-19.3c-1.1-0.5-3.2,0-4.4,0.7c-7.2,4.1-14.2,8.4-21.2,12.8
	C66.8,137.6,63.3,140.1,59.8,142.4z M174.9,194.9c-0.4-2.1-0.6-3.7-1-5.1c-0.1-0.5-0.9-1.1-1.4-1.1c-9.1-1.6-18.3-3.1-27.4-4.6
	c-5.9-1-11.8-1.7-17.6-2.9c-9.9-2-19.8-4.1-29.5-6.6c-10.9-2.8-21.6-6.2-32.4-9.3c-1.7-0.5-3.4-0.8-5.9-1.4c1.6,2.9,1.7,5.4,5,6.2
	c9.2,2.1,18.4,4.4,27.6,6.8c11.4,2.9,22.7,6.1,34.1,9c6.5,1.6,13.2,2.9,19.8,4.1c5.9,1.2,11.9,2.2,17.8,3.2
	C167.4,193.8,170.9,194.3,174.9,194.9z"/>
<path class="st0" d="M164.2,93.8c-2.9,2-5.9,3.8-8.6,6c-6.4,5.2-14.3,4.7-20.2,1.6c-4.1-2.2-5.9-6.1-5.6-10.6c0.5-7.2,2.3-14,7-20
	c3.2-4.1,7.4-7.2,12.3-8.5c2.7-0.7,6.4,0.5,9.1,1.8c4.5,2.1,7,6.1,8.6,10.7c2.2,6.7,4.9,13.3,10.5,18.3c0.9,0.8,2,1.3,2.9,2
	c0.9,0.7,2.3,1.4,2.6,2.3c0.5,1.7,0.3,3.7,0.4,5.5c-1.7,0-3.5,0.3-5.1,0c-5.6-1.1-9.4-4.6-12.7-8.7c-0.6-0.8-1.1-1.6-1.6-2.4
	C163.9,92.5,164.1,93.1,164.2,93.8z M136.8,90.4c0,4.5,0.6,5.5,4,5.7c1.6,0.1,3.3-0.1,4.7-0.6c9.1-3.4,13.9-12.7,11.5-21.6
	c-1.2-4.3-7.7-6.6-10.6-3.4C141,76.1,136.7,82.3,136.8,90.4z"/>
<path class="st0" d="M190.3,58c7.5-0.4,7.9,1,7.4,7.4c-0.9,11.2-1.9,22.4-3.2,33.6c-0.2,1.4-1.7,3.1-3.1,3.9c-1.8,1.1-3-0.2-3.3-2
	c-0.6-4.5-1.1-9-1.8-13.5c-0.8-5.8-1.8-11.6-2.7-17.4c-0.4-2.6-0.9-5.1-0.8-7.7c0-3.7,1-4.4,5-4.4C188.7,58,189.5,58,190.3,58z"/>
<path class="st0" d="M142.2,243.2c-1.7-2.4-3.4-4.8-5.4-7.7c-0.5,2.6-0.9,4.6-1.3,6.6c-0.4,0-0.9,0-1.3,0c-0.3-1.2-0.8-2.4-0.9-3.6
	c-0.1-3.6,0.2-7.1,0-10.7c-0.2-3.1,1.9-3.8,4.3-4.2c2.3-0.4,6.1,1.9,6.8,4.1c0.7,2.6,0.6,5-2.2,6.6c-0.7,0.4-1.3,0.9-2.1,1.6
	c0.5,1.1,0.9,2.3,1.5,3.4c0.6,1.1,1.3,2.1,1.9,3.1C143.1,242.6,142.6,242.9,142.2,243.2z M135.8,230.7c0.3,0.7,0.5,2.5,1.4,3
	c1.4,0.9,4.9-1.7,5.2-3.4c0.3-2.2-1.3-4.4-3.6-4.5C135.1,225.6,136.5,228.4,135.8,230.7z"/>
<path class="st0" d="M196.5,42.3c0,3.3-3,6.7-5.9,6.7c-2.9,0-6.1-2.5-6.1-5c0-3.3,3.1-6.2,6.7-6.2C194.3,37.8,196.5,39.6,196.5,42.3
	z"/>
<path class="st0" d="M77,234.9c0-2,0.1-4,0-6.1c-0.2-2.8,1.5-3.9,3.8-4.8c2.8-1.1,5.3-0.2,7.2,1.6c1.8,1.7,2.4,4.1,1.1,6.4
	c-1.4,2.6-3.4,4.6-6.6,5c-2.3,0.3-3.2,1.4-3.1,3.5c0,0.7,0.1,1.4-0.2,2c-0.2,0.5-0.8,0.8-1.3,1.2c-0.3-0.4-0.9-0.9-0.9-1.3
	C77,239.9,77,237.4,77,234.9z M79.6,231.2c-0.1,0-0.3,0.1-0.4,0.1c0.5,1.4,1,2.7,1.5,4.1c1.6-0.7,3.3-1.2,4.7-2.1
	c0.8-0.5,1.7-1.7,1.7-2.6c0.1-1.3-0.1-3.2-1-3.9c-1.2-0.9-3.2-1.1-4.8-0.9c-0.6,0.1-1.1,1.9-1.5,3C79.6,229.6,79.7,230.4,79.6,231.2
	z"/>
<path class="st0" d="M96.9,224.9c2.3,6.1,4.4,11.9,6.5,17.6c-0.3,0.1-0.5,0.3-0.8,0.4c-0.7-0.7-1.7-1.4-1.9-2.2
	c-0.9-3-3.3-2.2-5.4-2.3c-2.3-0.1-2,1.7-2.4,3c-0.3,0.9-1.1,1.6-1.7,2.6C89.2,241.3,92.6,230.3,96.9,224.9z M96.8,232.2
	c-0.5,0.1-1,0.1-1.5,0.2c0,1.1,0,2.2,0,3.3c0.9-0.1,1.7-0.2,2.6-0.3C97.5,234.4,97.2,233.3,96.8,232.2z"/>
<path class="st0" d="M105.4,237.6c0.6,0.6,1,1.4,1.7,1.8c1.3,0.6,2.7,1.4,4,1.4c0.9,0,2.3-1,2.7-1.8c0.3-0.6-0.6-2-1.4-2.5
	c-1.6-1-3.6-1.4-5-2.6c-1.4-1.2-3.4-3.1-3.2-4.6c0.2-2.4,2-4.6,5.1-4.9c2.2-0.2,4.6-0.7,5.5,2.4c-0.9-0.3-1.7-0.6-2.6-0.9
	c-2.4-0.7-4.2,0.3-5.4,2.2c-1.4,2.2,0.6,3.2,2,4.1c1.2,0.8,2.7,1.4,4,2c3,1.4,4.3,4,3.1,6c-1.3,2.3-5.8,3.6-8.1,2.2
	C106.1,241.6,104.1,240.5,105.4,237.6z"/>
<path class="st0" d="M147.7,225.6c1.3,2.2,2.6,4.4,4.3,7.4c2-3,3.6-5.5,5.3-7.9c0.4,0.2,0.7,0.4,1,0.6c-1.9,6-3.8,11.9-6,18.7
	c-0.3-1.7-0.7-2.6-0.6-3.4c0.9-4.4-1.7-7.6-3.9-11.1c-0.7-1.1-0.8-2.7-1.2-4C146.9,225.7,147.3,225.6,147.7,225.6z"/>
<path class="st0" d="M131.6,224.9c-0.7,0.6-0.9,0.9-1.2,0.9c-4.8,0-4.7,3-4.5,6.3c0.2,2.6,0,5.2-0.1,7.8c0,0.9-0.2,1.7-0.3,2.6
	c-0.3,0-0.7,0.1-1,0.1c-0.3-1-0.8-1.9-0.8-2.9c-0.1-3.3,0-6.6,0.1-9.8c0.1-2.1-0.1-3.9-3.1-3.7c-0.3,0-0.7-0.5-1.7-1.3
	C123.5,224.9,127.3,224.9,131.6,224.9z"/>
<path class="st1" d="M57.4,145.4c6.7,1.4,12.4,2.6,18.2,3.8c5.1,1,10.3,2.1,15.4,2.9c8.9,1.5,17.9,2.9,26.8,4.3
	c3.6,0.6,7.2,1,10.8,1.6c5,0.8,9.9,1.7,14.9,2.7c7.2,1.4,14.4,2.9,21.6,4.3c2.2,0.4,4.4,0.7,6.5,1.3c0.8,0.2,1.9,1.2,1.9,1.9
	c0.1,5.9,0.1,11.9,0.1,18.3c-3.1-0.6-5.9-1.1-8.8-1.6c-4.1-0.7-8.2-1.3-12.3-1.9c-5.7-0.9-11.4-1.8-17.1-2.8c-5.4-1-10.7-2.1-16-3.2
	c-6.3-1.3-12.7-2.4-18.9-3.9c-6.7-1.6-13.3-3.6-20-5.6c-6.4-1.9-12.9-3.8-19.3-5.9c-0.7-0.2-1.5-1.1-1.7-1.8
	C58.8,155.3,58.1,150.6,57.4,145.4z"/>
<path class="st1" d="M176.3,206.5c-0.1,5.9-0.1,5.2-5.7,5.2c-10.2,0.1-19.4-3.7-29-5.7c-3.6-0.7-7.2-0.9-10.8-1.4
	c-7.5-1.2-14.9-2.5-22.4-3.7c-8.9-1.4-17.8-2.4-26.6-4c-5.3-0.9-10.5-2.6-15.7-4c-1.7-0.4-2-1.4-2.1-3c-0.2-5.2-0.6-10.3-1-15.5
	c-0.1-1.6,0.3-2.3,2.3-1.9c11.2,2.7,22.4,5.1,33.5,8c7,1.8,13.8,4.3,20.8,6.2c4.9,1.3,10,2.1,15,3.1c6.8,1.3,13.6,2.6,20.4,3.8
	c5.4,1,10.8,2.4,16.3,3c3.2,0.4,4.4,1.9,4.7,4.6C176.2,203,176.2,204.7,176.3,206.5z"/>
<path class="st1" d="M59.8,142.4c3.5-2.3,6.9-4.8,10.5-7c7-4.3,14.1-8.6,21.2-12.8c1.2-0.7,3.3-1.2,4.4-0.7
	c15,6.7,31.2,10.8,45.3,19.3c10.7,6.4,20.9,13.8,31.3,20.7c0.4,0.3,0.6,0.7,0.7,1.7c-18.8-3.4-37.5-7-56.3-10.3
	c-18.8-3.3-37.7-6.5-56.5-9.7C60.2,143.3,60,142.8,59.8,142.4z M93.3,132.6c-1.1-0.5-2.1-1.1-3.2-1.6c-2.2-1-4.9-0.4-6,1.6
	c-1.2,2.2,0.5,3.8,2.2,4.4c1.7,0.6,3.8,0.3,6.3,0.4c-1.6-1.5-2.3-2.3-2.8-2.8c0.7-2.1,3.6,0.9,3.4-2.1c0.6,0.2,1.1,0.3,1.2,0.3
	c0.8-1.2,1.6-2.1,2.3-3.1c0.5,0.9,1,1.8,1.7,3.1c0.6-0.8,1.7-1.5,1.6-2.2c0-1.7-0.2-3.7-1.1-5c-0.5-0.7-2.8-0.7-4.1-0.4
	c-2.3,0.7-2.3,2.7-2,4.6C93.1,130.7,93.2,131.7,93.3,132.6z M92.8,138.9c-3.4,0.4-6.3,2.8-5.9,5.1c0.4,2.2,2.3,3,4.2,2.9
	c3.1-0.1,4.8-3,4.2-6.6c-0.8,0.6-1.7,1.1-3,2C92.5,140.7,92.6,139.8,92.8,138.9z M100.1,141.9c-1.2-0.4-2.1-0.7-3-1
	c0.2,1,0.3,2.1,0.5,3.1c0.4,2,2,2.7,3.8,2.4c1.4-0.2,3.5-0.8,3.7-1.6c0.3-1.2-0.4-3-1.3-4.1c-0.9-1-2.6-1.4-4.3-2.3
	C99.9,140,100,140.9,100.1,141.9z M100.9,136.8c3.2,1,6.7,0.4,6.9-1.4c0.1-1.3-0.5-3.1-1.5-3.9c-2-1.6-4.4-0.6-6.4,2.1
	c0.9,0.4,1.9,0.8,2.9,1.1C102.1,135.3,101.6,136,100.9,136.8z"/>
<path class="st1" d="M174.9,194.9c-4.1-0.6-7.5-1.1-11-1.7c-5.9-1-11.9-2.1-17.8-3.2c-6.6-1.3-13.3-2.5-19.8-4.1
	c-11.4-2.9-22.8-6-34.1-9c-9.2-2.4-18.3-4.7-27.6-6.8c-3.3-0.8-3.4-3.3-5-6.2c2.5,0.6,4.3,0.9,5.9,1.4c10.8,3.1,21.5,6.5,32.4,9.3
	c9.7,2.5,19.6,4.6,29.5,6.6c5.8,1.2,11.8,1.9,17.6,2.9c9.1,1.5,18.3,3,27.4,4.6c0.6,0.1,1.3,0.7,1.4,1.1
	C174.3,191.2,174.5,192.8,174.9,194.9z"/>
<path class="st1" d="M136.8,90.4c-0.1-8.1,4.2-14.3,9.6-20c2.9-3.1,9.4-0.8,10.6,3.4c2.5,9-2.4,18.3-11.5,21.6
	c-1.4,0.5-3.2,0.7-4.7,0.6C137.4,95.9,136.8,94.9,136.8,90.4z"/>
<path class="st1" d="M135.8,230.7c0.7-2.4-0.7-5.2,3-4.9c2.3,0.2,3.9,2.3,3.6,4.5c-0.3,1.7-3.8,4.3-5.2,3.4
	C136.3,233.2,136.1,231.5,135.8,230.7z"/>
<path class="st1" d="M79.6,231.2c0.1-0.8,0-1.6,0.2-2.3c0.4-1.1,0.9-2.9,1.5-3c1.6-0.2,3.6,0,4.8,0.9c0.9,0.6,1.1,2.5,1,3.9
	c-0.1,0.9-0.9,2.1-1.7,2.6c-1.4,0.9-3.1,1.4-4.7,2.1c-0.5-1.4-1-2.7-1.5-4.1C79.4,231.3,79.5,231.3,79.6,231.2z"/>
<path class="st1" d="M96.8,232.2c0.4,1.1,0.8,2.1,1.1,3.2c-0.9,0.1-1.7,0.2-2.6,0.3c0-1.1,0-2.2,0-3.3
	C95.8,232.4,96.3,232.3,96.8,232.2z"/>
<path class="st0" d="M92.8,138.9c-0.2,0.9-0.3,1.8-0.6,3.4c1.4-0.9,2.2-1.5,3-2c0.6,3.6-1.1,6.4-4.2,6.6c-2,0.1-3.9-0.7-4.2-2.9
	C86.4,141.7,89.3,139.3,92.8,138.9z"/>
<path class="st0" d="M93.3,132.5c0.2,3-2.7,0-3.4,2.1c0.5,0.5,1.3,1.3,2.8,2.8c-2.6-0.1-4.7,0.2-6.3-0.4c-1.7-0.6-3.4-2.2-2.2-4.4
	c1-2,3.7-2.7,6-1.6c1.1,0.5,2.1,1.1,3.2,1.6L93.3,132.5z"/>
<path class="st0" d="M100.1,141.9c-0.1-1-0.2-1.8-0.4-3.4c1.7,0.9,3.4,1.2,4.3,2.3c0.9,1.1,1.6,2.9,1.3,4.1
	c-0.2,0.8-2.4,1.4-3.7,1.6c-1.8,0.3-3.4-0.4-3.8-2.4c-0.2-1-0.4-2.1-0.5-3.1C98.1,141.2,98.9,141.5,100.1,141.9z"/>
<path class="st0" d="M93.3,132.6c-0.2-0.9-0.3-1.8-0.4-2.8c-0.3-1.9-0.3-3.9,2-4.6c1.3-0.4,3.6-0.3,4.1,0.4c0.9,1.4,1,3.3,1.1,5
	c0,0.7-1,1.4-1.6,2.2c-0.7-1.3-1.2-2.2-1.7-3.1c-0.7,1-1.4,2-2.3,3.1C94.4,132.8,93.8,132.6,93.3,132.6
	C93.3,132.5,93.3,132.6,93.3,132.6z"/>
<path class="st0" d="M100.9,136.8c0.7-0.8,1.3-1.5,1.8-2.1c-1-0.4-1.9-0.8-2.9-1.1c2-2.7,4.4-3.7,6.4-2.1c1,0.8,1.7,2.6,1.5,3.9
	C107.6,137.2,104,137.8,100.9,136.8z"/>
</svg>
